<svg id="line_icons" height="512" viewBox="0 0 74 74" width="512" xmlns="http://www.w3.org/2000/svg" data-name="line icons"><path d="m16.652 48.957a1 1 0 0 1 -.961-.722l-3.391-11.714a1 1 0 0 1 .683-1.239l46.087-13.362a1 1 0 0 1 1.24.683l2.79 9.615a3.186 3.186 0 0 1 -2.173 3.945l-43.996 12.754a1.017 1.017 0 0 1 -.279.04zm-2.152-12.032 2.838 9.793 43.029-12.476a1.186 1.186 0 0 0 .809-1.468l-2.509-8.654z"/><path d="m40.242 46.658a2.222 2.222 0 0 1 -2.126-1.582l-.916-3.071a1 1 0 0 1 .681-1.245l10.829-3.138a1 1 0 0 1 1.237.676l.907 3.055a2.214 2.214 0 0 1 -1.506 2.756l-8.494 2.462a2.191 2.191 0 0 1 -.612.087zm-.834-4.258.625 2.106a.213.213 0 0 0 .266.144l8.492-2.462a.215.215 0 0 0 .146-.265l-.624-2.1z"/><path d="m13.257 37.242a.991.991 0 0 1 -.4-.082l-9.126-3.94a2.868 2.868 0 0 1 .344-5.389l49.013-14.1a4.465 4.465 0 0 1 5.531 3.046l1.691 5.823a1 1 0 0 1 -.683 1.238l-46.092 13.362a1.009 1.009 0 0 1 -.278.042zm41.076-21.691a2.475 2.475 0 0 0 -.69.1l-49.015 14.101a.869.869 0 0 0 -.1 1.632l8.8 3.8 44.781-12.984-1.409-4.868a2.469 2.469 0 0 0 -2.366-1.781z"/><path d="m11.17 47.935a1 1 0 0 1 -.961-.722l-3.842-13.252a1 1 0 0 1 1.358-1.2l5.928 2.559a1 1 0 0 1 .564.64l2.7 9.305a1 1 0 0 1 -.682 1.239l-4.787 1.396a1.009 1.009 0 0 1 -.278.035zm-2.291-12.493 2.973 10.258 2.864-.831-2.288-7.891z"/><path d="m51.667 56.115a1 1 0 0 1 -.267-1.964l13.323-3.7a1 1 0 1 1 .535 1.927l-13.322 3.7a1 1 0 0 1 -.269.037z"/><path d="m51.23 51.994a1 1 0 0 1 -.266-1.964l13.759-3.83a1 1 0 1 1 .535 1.927l-13.758 3.83a1.038 1.038 0 0 1 -.27.037z"/><path d="m44.869 52.07a1 1 0 0 1 -.954-.7l-1.928-6.144a1 1 0 0 1 .675-1.26l3.922-1.139a1 1 0 0 1 1.234.663l1.776 5.7a1 1 0 0 1 -1.91.595l-1.484-4.765-2 .581 1.622 5.169a1 1 0 0 1 -.654 1.253.983.983 0 0 1 -.299.047z"/><path d="m71 60.449a7.023 7.023 0 0 1 -7.014-7.014v-8.572a7.023 7.023 0 0 1 7.014-7.014 1 1 0 0 1 1 1v20.6a1 1 0 0 1 -1 1zm-1-20.5a5.024 5.024 0 0 0 -4.014 4.914v8.572a5.024 5.024 0 0 0 4.014 4.914z"/><path d="m48.083 58.389a4.977 4.977 0 1 1 4.977-4.977 4.983 4.983 0 0 1 -4.977 4.977zm0-7.953a2.977 2.977 0 1 0 2.977 2.976 2.98 2.98 0 0 0 -2.977-2.976z"/></svg>