<?xml version="1.0" encoding="iso-8859-1"?>
<!-- Generator: Adobe Illustrator 16.0.0, SVG Export Plug-In . SVG Version: 6.00 Build 0)  -->
<!DOCTYPE svg PUBLIC "-//W3C//DTD SVG 1.1//EN" "http://www.w3.org/Graphics/SVG/1.1/DTD/svg11.dtd">
<svg version="1.1" id="Capa_1" xmlns="http://www.w3.org/2000/svg" xmlns:xlink="http://www.w3.org/1999/xlink" x="0px" y="0px"
	 width="53.973px" height="53.973px" viewBox="0 0 53.973 53.973" style="enable-background:new 0 0 53.973 53.973;"
	 xml:space="preserve">
<g>
	<g>
		<path d="M10.877,39.5c0,0.553,0.447,1,1,1h12.959c0.553,0,1-0.447,1-1v-2.934h9.877c0.553,0,1-0.446,1-1V10.75
			c0-0.553-0.447-1-1-1H1c-0.553,0-1,0.447-1,1v24.816c0,0.554,0.447,1,1,1h9.877V39.5z M23.836,38.5H12.877v-1.934h10.959V38.5z
			 M34.713,11.75v17.725H2V11.75H34.713z M2,31.475h32.713v3.094h-9.877H11.877H2V31.475z"/>
		<path d="M7.943,42.223c-0.553,0-1,0.446-1,1c0,0.553,0.447,1,1,1h20.829c0.553,0,1-0.447,1-1c0-0.554-0.447-1-1-1H7.943z"/>
		<path d="M52.973,18.12H40.709c-0.553,0-1,0.447-1,1v3.95v13.652v6.287c0,0.553,0.447,1,1,1h12.264c0.553,0,1-0.447,1-1v-6.287
			V23.07v-3.95C53.973,18.567,53.525,18.12,52.973,18.12z M51.973,20.12v1.95H41.709v-1.95H51.973z M51.973,35.723H41.709V24.07
			h10.264V35.723z M41.709,42.012v-4.289h10.264v4.289H41.709z"/>
		<path d="M47.592,39.08H46.09c-0.553,0-1,0.447-1,1s0.447,1,1,1h1.502c0.553,0,1-0.447,1-1S48.145,39.08,47.592,39.08z"/>
	</g>
</g>
<g>
</g>
<g>
</g>
<g>
</g>
<g>
</g>
<g>
</g>
<g>
</g>
<g>
</g>
<g>
</g>
<g>
</g>
<g>
</g>
<g>
</g>
<g>
</g>
<g>
</g>
<g>
</g>
<g>
</g>
</svg>
